<svg width="25" height="24" viewBox="0 0 25 24" fill="none" xmlns="http://www.w3.org/2000/svg">
<path d="M19.6061 12.1195C19.4261 12.1195 19.2535 12.048 19.1262 11.9208C18.999 11.7935 18.9275 11.6209 18.9275 11.441V9.48668C18.953 9.10214 18.826 8.72305 18.574 8.43145C18.3221 8.13986 17.9654 7.95923 17.5812 7.92868H5.83922C5.65925 7.92868 5.48665 7.85718 5.35939 7.72993C5.23214 7.60267 5.16064 7.43007 5.16064 7.2501C5.16064 7.07014 5.23214 6.89754 5.35939 6.77028C5.48665 6.64303 5.65925 6.57153 5.83922 6.57153H17.5812C18.3267 6.59842 19.031 6.91984 19.5399 7.4653C20.0487 8.01075 20.3204 8.73573 20.2955 9.48125V11.4355C20.2962 11.526 20.2789 11.6157 20.2444 11.6994C20.21 11.7831 20.1591 11.859 20.0949 11.9228C20.0306 11.9865 19.9543 12.0367 19.8704 12.0705C19.7864 12.1043 19.6966 12.121 19.6061 12.1195Z" fill="#E31C24"/>
<path d="M17.5809 20.7836H5.83891C5.09346 20.7567 4.38909 20.4353 3.88027 19.8899C3.37145 19.3444 3.0997 18.6194 3.12462 17.8739V5.62706C3.12462 5.44709 3.19611 5.27449 3.32337 5.14724C3.45063 5.01998 3.62322 4.94849 3.80319 4.94849C3.98316 4.94849 4.15576 5.01998 4.28302 5.14724C4.41027 5.27449 4.48176 5.44709 4.48176 5.62706V17.8739C4.45634 18.2579 4.58349 18.6364 4.83559 18.9271C5.08769 19.2178 5.44435 19.3973 5.82805 19.4265H17.5809C17.9646 19.3973 18.3213 19.2178 18.5734 18.9271C18.8255 18.6364 18.9526 18.2579 18.9272 17.8739V16.4951C18.9272 16.3151 18.9987 16.1425 19.1259 16.0152C19.2532 15.888 19.4258 15.8165 19.6058 15.8165C19.7857 15.8165 19.9583 15.888 20.0856 16.0152C20.2128 16.1425 20.2843 16.3151 20.2843 16.4951V17.8739C20.3093 18.6176 20.039 19.341 19.5325 19.8862C19.026 20.4313 18.3244 20.7539 17.5809 20.7836Z" fill="#E31C24"/>
<path d="M17.3043 7.92864C17.1262 7.92866 16.9552 7.85866 16.8283 7.73375C16.7013 7.60883 16.6286 7.43901 16.6257 7.26093V5.75721C16.613 5.43513 16.4735 5.13114 16.2376 4.91149C16.0017 4.69185 15.6885 4.57436 15.3663 4.58464H5.59489C5.31787 4.57436 5.04807 4.67427 4.84457 4.86251C4.64108 5.05074 4.52047 5.31195 4.50917 5.58893C4.52047 5.8659 4.64108 6.12711 4.84457 6.31535C5.04807 6.50358 5.31787 6.6035 5.59489 6.59321H11.5663C11.7463 6.59321 11.9189 6.66471 12.0461 6.79196C12.1734 6.91922 12.2449 7.09182 12.2449 7.27178C12.2449 7.45175 12.1734 7.62435 12.0461 7.75161C11.9189 7.87886 11.7463 7.95036 11.5663 7.95036H5.5786C5.26233 7.95538 4.94817 7.89797 4.65412 7.7814C4.36008 7.66483 4.09191 7.49139 3.86499 7.27103C3.63808 7.05067 3.45686 6.7877 3.33172 6.4972C3.20658 6.20669 3.13999 5.89435 3.13574 5.57807C3.14716 4.94119 3.4108 4.33485 3.86878 3.89213C4.32677 3.44941 4.94169 3.20647 5.5786 3.21664H15.35C15.69 3.20945 16.0281 3.26957 16.3447 3.39356C16.6614 3.51755 16.9504 3.70295 17.1951 3.93908C17.4398 4.17522 17.6354 4.45742 17.7706 4.76946C17.9058 5.08149 17.9779 5.41718 17.9829 5.75721V7.26093C17.98 7.43901 17.9073 7.60883 17.7803 7.73375C17.6534 7.85866 17.4824 7.92866 17.3043 7.92864ZM20.0457 17.1572H16.2837C15.5489 17.1718 14.8383 16.8941 14.3081 16.3852C13.7778 15.8763 13.4711 15.1777 13.4555 14.4429V13.4604C13.4711 12.7256 13.7778 12.027 14.3081 11.5181C14.8383 11.0092 15.5489 10.7315 16.2837 10.7461H20.0837C20.3211 10.7468 20.5561 10.7942 20.7751 10.8857C20.9942 10.9773 21.193 11.111 21.3604 11.2794C21.5278 11.4477 21.6603 11.6474 21.7505 11.867C21.8407 12.0866 21.8867 12.3218 21.886 12.5592V15.3766C21.8775 15.8566 21.6789 16.3135 21.3339 16.6473C20.989 16.9811 20.5257 17.1645 20.0457 17.1572ZM16.2837 12.1086C15.9097 12.0939 15.545 12.2278 15.2694 12.4811C14.9937 12.7343 14.8295 13.0864 14.8126 13.4604V14.4701C14.8295 14.844 14.9937 15.1961 15.2694 15.4493C15.545 15.7026 15.9097 15.8365 16.2837 15.8218H20.0457C20.1643 15.8218 20.2781 15.7751 20.3624 15.6917C20.4468 15.6084 20.4949 15.4952 20.4963 15.3766V12.5592C20.4931 12.4509 20.4484 12.3479 20.3715 12.2715C20.3307 12.2289 20.2819 12.195 20.2278 12.1717C20.1737 12.1484 20.1155 12.1362 20.0566 12.1358L16.2837 12.1086Z" fill="#E31C24"/>
<path d="M16.6583 14.6438C17.0331 14.6438 17.3369 14.34 17.3369 13.9652C17.3369 13.5904 17.0331 13.2866 16.6583 13.2866C16.2835 13.2866 15.9797 13.5904 15.9797 13.9652C15.9797 14.34 16.2835 14.6438 16.6583 14.6438Z" fill="#E31C24"/>
<path d="M16 7.5H4V17.5C4 17.9 4.66667 19 5 19.5L16.5 20L19.5 19V16.5L15 16L14 14L15 12L19 11.5L19.5 9.5L18.5 8L16 7.5Z" fill="#E31C24"/>
</svg>
