<svg xmlns="http://www.w3.org/2000/svg" width="58" height="36.001" viewBox="0 0 58 36.001">
  <g id="Group_4143" data-name="Group 4143" transform="translate(16362.208 18008.352)">
    <path id="path4147" d="M241.691-393.473h-57.8v-36h57.8Z" transform="translate(-16545.9 -17578.879)" fill="#fff"/>
    <path id="path4149" d="M187.221-323.073h57.9v5.169h-57.9Z" transform="translate(-16549.43 -17654.539)" fill="#f7b600"/>
    <path id="path4151" d="M187.221-420.973h57.9v-5.168h-57.9Z" transform="translate(-16549.43 -17582.113)" fill="#1a1f71"/>
    <g id="g4161" transform="translate(-16355.941 -17998.703)">
      <path id="path4163" d="M-50.268-.58l-2.906,13.5h-3.515l2.906-13.5Zm14.785,8.72,1.851-5.071L-32.57,8.14Zm3.923,4.785h3.249L-31.15-.58h-3a1.6,1.6,0,0,0-1.5.99l-5.274,12.515h3.691l.732-2.017h4.509l.426,2.017Zm-9.175-4.409c.015-3.564-4.957-3.761-4.924-5.354.012-.484.476-1,1.491-1.131a6.672,6.672,0,0,1,3.466.6l.616-2.865a9.525,9.525,0,0,0-3.287-.6c-3.474,0-5.918,1.835-5.938,4.464-.023,1.945,1.746,3.029,3.076,3.676,1.37.661,1.829,1.087,1.823,1.678-.01.906-1.094,1.307-2.1,1.322a7.378,7.378,0,0,1-3.61-.853l-.638,2.96a10.722,10.722,0,0,0,3.907.717c3.693,0,6.109-1.814,6.12-4.621M-55.291-.58l-5.694,13.5H-64.7L-67.5,2.146A1.481,1.481,0,0,0-68.337.96,14.769,14.769,0,0,0-71.8-.188l.083-.392h5.981A1.636,1.636,0,0,1-64.12.8l1.481,7.815L-58.983-.58Z" transform="translate(71.804 0.827)" fill="#1a1f71"/>
    </g>
    <g id="g4165" transform="translate(-16331.82 -17983.213)">
      <path id="path4167" d="M-4.468-4.583h-1.42v1.321H-4.3v.4H-6.366V-6.531h1.985v.4H-5.887v1.158h1.42Z" transform="translate(6.366 6.531)" fill="#1a1f71"/>
    </g>
    <path id="path4169" d="M298.067-342.583h.478v3.861h-.478Z" transform="translate(-16627.078 -17640.826)" fill="#1a1f71"/>
    <g id="g4171" transform="translate(-16327.772 -17982.236)">
      <path id="path4173" d="M-4.377-2.624A.679.679,0,0,0-5.041-3.4a.784.784,0,0,0-.734.772Zm-1.4.343a.841.841,0,0,0,.9.914A1.717,1.717,0,0,0-4.149-1.5l.087.343a2.149,2.149,0,0,1-.881.168A1.226,1.226,0,0,1-6.237-2.325,1.273,1.273,0,0,1-5-3.739,1.108,1.108,0,0,1-3.915-2.5a1.149,1.149,0,0,1-.017.223Z" transform="translate(6.237 3.739)" fill="#1a1f71"/>
    </g>
    <g id="g4175" transform="translate(-16324.9 -17982.236)">
      <path id="path4177" d="M-4.864-6.106a1.849,1.849,0,0,1-.756.152A1.25,1.25,0,0,1-6.931-7.3,1.341,1.341,0,0,1-5.517-8.7a1.5,1.5,0,0,1,.663.141l-.108.364a1.173,1.173,0,0,0-.555-.125.913.913,0,0,0-.93,1,.9.9,0,0,0,.914.984,1.368,1.368,0,0,0,.587-.125Z" transform="translate(6.931 8.7)" fill="#1a1f71"/>
    </g>
    <g id="g4179" transform="translate(-16322.357 -17982.811)">
      <path id="path4181" d="M-2.061,0V.631h.685V.995h-.685v1.42c0,.327.092.511.359.511a.884.884,0,0,0,.277-.033l.022.365a1.307,1.307,0,0,1-.424.065.683.683,0,0,1-.517-.2,1.028,1.028,0,0,1-.185-.691V.995h-.408V.631h.408V.141Z" transform="translate(2.937)" fill="#1a1f71"/>
    </g>
    <g id="g4183" transform="translate(-16320.142 -17982.236)">
      <path id="path4185" d="M-.051-2.061c0-.31-.006-.576-.022-.821H.346l.022.522H.383a.8.8,0,0,1,.734-.576,1.012,1.012,0,0,1,.131.011v.452a.736.736,0,0,0-.163-.011.666.666,0,0,0-.642.609,1.443,1.443,0,0,0-.016.223v1.4H-.051Z" transform="translate(0.073 2.937)" fill="#1a1f71"/>
    </g>
    <g id="g4187" transform="translate(-16318.438 -17982.234)">
      <path id="path4189" d="M-1.152-3.239c0,.576.326,1.012.794,1.012s.8-.43.8-1.023c0-.446-.223-1.006-.788-1.006s-.8.522-.8,1.017M.931-3.266a1.289,1.289,0,0,1-1.311,1.4A1.254,1.254,0,0,1-1.641-3.223a1.286,1.286,0,0,1,1.3-1.392A1.245,1.245,0,0,1,.931-3.266" transform="translate(1.641 4.615)" fill="#1a1f71"/>
    </g>
    <g id="g4191" transform="translate(-16315.101 -17982.236)">
      <path id="path4193" d="M-.051-1.8c0-.277-.006-.495-.022-.712H.351l.027.435H.389a.975.975,0,0,1,.87-.489c.364,0,.93.218.93,1.12V.115H1.711V-1.4c0-.424-.158-.778-.609-.778A.69.69,0,0,0,.46-1.69a.679.679,0,0,0-.033.223V.115H-.051Z" transform="translate(0.073 2.571)" fill="#1a1f71"/>
    </g>
  </g>
</svg>
