<svg xmlns="http://www.w3.org/2000/svg" width="58" height="36.001" viewBox="0 0 58 36.001">
  <g id="Group_4142" data-name="Group 4142" transform="translate(16362.208 18008.352)">
    <path id="path4147" d="M241.691-393.473h-57.8v-36h57.8Z" transform="translate(-16545.9 -17578.879)" fill="#fff"/>
    <path id="path4149" d="M187.221-323.073h57.9v5.169h-57.9Z" transform="translate(-16549.43 -17654.539)" fill="#f7b600"/>
    <path id="path4151" d="M187.221-420.973h57.9v-5.168h-57.9Z" transform="translate(-16549.43 -17582.113)" fill="#1a1f71"/>
    <g id="g4161" transform="translate(-16355.941 -17998.703)">
      <path id="path4163" d="M-50.268-.58l-2.906,13.5h-3.515l2.906-13.5Zm14.785,8.72,1.851-5.071L-32.57,8.14Zm3.923,4.785h3.249L-31.15-.58h-3a1.6,1.6,0,0,0-1.5.99l-5.274,12.515h3.691l.732-2.017h4.509l.426,2.017Zm-9.175-4.409c.015-3.564-4.957-3.761-4.924-5.354.012-.484.476-1,1.491-1.131a6.672,6.672,0,0,1,3.466.6l.616-2.865a9.525,9.525,0,0,0-3.287-.6c-3.474,0-5.918,1.835-5.938,4.464-.023,1.945,1.746,3.029,3.076,3.676,1.37.661,1.829,1.087,1.823,1.678-.01.906-1.094,1.307-2.1,1.322a7.378,7.378,0,0,1-3.61-.853l-.638,2.96a10.722,10.722,0,0,0,3.907.717c3.693,0,6.109-1.814,6.12-4.621M-55.291-.58l-5.694,13.5H-64.7L-67.5,2.146A1.481,1.481,0,0,0-68.337.96,14.769,14.769,0,0,0-71.8-.188l.083-.392h5.981A1.636,1.636,0,0,1-64.12.8l1.481,7.815L-58.983-.58Z" transform="translate(71.804 0.827)" fill="#1a1f71"/>
    </g>
  </g>
</svg>
