<svg xmlns="http://www.w3.org/2000/svg" width="59" height="35.542" viewBox="0 0 59 35.542">
  <g id="Group_2169" data-name="Group 2169" transform="translate(-205 -545)">
    <path id="Path_3651" data-name="Path 3651" d="M24.653,33.963l.854-.36.827-.393.79-.431.77-.468.731-.5.7-.531L30,30.717l.642-.588.609-.624.575-.64.536-.67.51-.692.467-.716.432-.731.4-.752.355-.773.326-.786.282-.8.243-.812.206-.823.162-.837.126-.842.076-.851.041-.86,0-.861-.044-.865-.093-.867-.137-.86-.184-.87-.227-.857-.279-.858-.321-.851-.366-.829-.4-.8-.441-.774-.475-.743-.508-.716-.54-.683-.578-.658-.6-.622-.635-.589L29.5,4.05l-.682-.518-.706-.5-.731-.457-.745-.418-.768-.392-.79-.348-.8-.315L23.462.832,22.633.593l-.841-.2L20.935.235,20.076.116,19.21.04,18.329,0,17.45.006,16.566.05l-.884.092L14.8.273l-.887.182-.877.222-.876.273-.872.315-.847.357-.827.392-.79.431-.766.467-.729.5-.706.53L5.958,4.5l-.641.589-.6.62-.57.639-.538.665-.5.691-.467.712L2.2,9.152,1.81,9.9l-.36.769-.319.783-.281.8L.6,13.059l-.2.822-.163.837-.123.834L.038,16.4,0,17.258l0,.853.053.863.091.862.135.861.181.857.226.858.276.853.321.846.366.836.4.809.442.771.477.755L3.481,28l.543.689.569.66.6.625.631.6.659.561.679.526.707.5.723.458.75.426.767.39.784.351.8.32.811.276.83.239.842.2.849.158.86.123.863.079.874.042.88-.005.879-.043.885-.09.88-.133.883-.179.875-.221.878-.273Z" transform="translate(228.011 545)" fill="#fcb331" fill-rule="evenodd"/>
    <path id="Path_3652" data-name="Path 3652" d="M24.71,33.956l.847-.356.827-.394.791-.432.766-.464.729-.5.7-.531.668-.563.641-.588.6-.62.569-.638.536-.671.5-.689.466-.715.433-.734.394-.749.358-.773.319-.781.281-.8.244-.812.2-.82.162-.839.12-.84.082-.85.035-.859,0-.86-.054-.862-.092-.867-.136-.863-.186-.869-.225-.858-.279-.857-.324-.852-.363-.829-.4-.8-.442-.774L33.012,7.9,32.5,7.186,31.963,6.5l-.569-.662-.6-.62-.627-.593-.659-.56-.677-.522-.707-.5L27.4,2.59l-.747-.418-.767-.391L25.1,1.43l-.8-.315L23.484.839,22.654.6l-.84-.2L20.964.24,20.106.121,19.243.043,18.369,0,17.49.007l-.882.042-.882.091-.88.131-.883.181-.877.222-.876.273-.866.314-.852.358-.827.393-.79.431-.77.469-.732.5-.7.529L6,4.505l-.641.587-.61.624-.574.64-.539.666-.509.692-.467.714-.432.732-.4.751-.358.768-.325.785-.282.8-.245.806-.207.823-.161.837-.128.836-.077.849L0,17.274l0,.854.045.867.091.86.136.86.18.86.228.856.276.852.319.847.369.836.4.806.439.776.479.752.508.718.544.691.578.656.6.626.636.6.654.562.684.524.708.5.729.457.747.424.769.389.79.35.8.318.82.274.829.24.841.2.856.156.861.124.867.077.88.04.88,0,.884-.045.884-.093.883-.133.887-.18.876-.221.877-.275Z" transform="translate(205 545.321)" fill="#ed1c2e" fill-rule="evenodd"/>
    <path id="Path_3653" data-name="Path 3653" d="M0,4.458,8.877.908,8.513,0,.4,3.244Z" transform="translate(233.782 547.934) rotate(21)" fill="#fcb331" fill-rule="evenodd"/>
    <path id="Path_3654" data-name="Path 3654" d="M0,4.989,10.205.907,9.841,0,.171,3.868Z" transform="translate(232.586 549.633) rotate(21)" fill="#fcb331" fill-rule="evenodd"/>
    <path id="Path_3655" data-name="Path 3655" d="M0,5.387,11.2.908,10.834,0,.031,4.322Z" transform="translate(231.701 551.259) rotate(21)" fill="#fcb331" fill-rule="evenodd"/>
    <path id="Path_3656" data-name="Path 3656" d="M.081,5.658,11.961.907,11.6,0,0,4.638Z" transform="translate(231.026 553.102) rotate(21)" fill="#fcb331" fill-rule="evenodd"/>
    <path id="Path_3657" data-name="Path 3657" d="M.645,5.511,12.158.907,11.795,0,0,4.718Z" transform="translate(231.016 563.232) rotate(21)" fill="#fcb331" fill-rule="evenodd"/>
    <path id="Path_3658" data-name="Path 3658" d="M.786,5.17,11.447.907,11.085,0,0,4.433Z" transform="translate(231.7 565.601) rotate(21)" fill="#fcb331" fill-rule="evenodd"/>
    <path id="Path_3659" data-name="Path 3659" d="M.933,4.693,10.4.905,10.037,0,0,4.013Z" transform="translate(232.695 567.97) rotate(21)" fill="#fcb331" fill-rule="evenodd"/>
    <path id="Path_3660" data-name="Path 3660" d="M1.159,4.04,8.982.913,8.617,0,0,3.447Z" transform="translate(234.035 570.645) rotate(21)" fill="#fcb331" fill-rule="evenodd"/>
    <path id="Path_3661" data-name="Path 3661" d="M.187,5.82,12.468.909,12.1,0,0,4.842Z" transform="translate(230.589 555.025) rotate(21)" fill="#fcb331" fill-rule="evenodd"/>
    <path id="Path_3662" data-name="Path 3662" d="M.194,2.778,4.876.907,4.513,0,0,1.8Z" transform="translate(237.56 563.752) rotate(21)" fill="#fcb331" fill-rule="evenodd"/>
    <path id="Path_3663" data-name="Path 3663" d="M.2,2.635,4.506.912,4.141,0,0,1.655Z" transform="translate(237.874 561.766) rotate(21)" fill="#fcb331" fill-rule="evenodd"/>
    <path id="Path_3664" data-name="Path 3664" d="M0,.487,1.219,0l.365.913-1.16.464Z" transform="translate(228.686 562.982) rotate(21)" fill="#fcb331" fill-rule="evenodd"/>
    <path id="Path_3665" data-name="Path 3665" d="M3.989,1.388l-.08.026-.083.019-.08.019-.076.016L3.6,1.486l-.077.02-.078.017-.084.02-.082.02-.093.029-.1.036-.108.038-.119.048-.126.055-.142.071-.16.076-.106.062-.1.059-.082.072-.071.071L2,2.249l-.055.075L1.91,2.4l-.03.071L1.87,2.55l0,.073.016.072.026.066.047.067.051.064.076.056L2.168,3l.155.06.17.031.188.01.192,0,.2-.018.209-.011L3.5,3.062h.209l.207.028.207.056.2.083.187.128.178.179.158.23.144.294.118.365.068.282.024.257-.005.25-.038.232-.064.214L5,5.861l-.108.186-.132.176-.147.16-.156.147-.17.133-.18.122L3.93,6.9l-.179.092-.181.086L3.4,7.149l-.242.1-.228.083-.2.08-.187.07L2.37,7.54l-.157.052-.139.04-.137.034L1.813,7.7l-.114.02-.115.025-.108.01-.1.016-.1,0-.1,0-.11,0L.812,6.437l.055-.008.068-.008.088-.008.1-.016.11-.019.122-.023.135-.021L1.638,6.3l.149-.036.156-.035.162-.044.164-.046.164-.061.166-.06.165-.064.162-.072.148-.1.111-.1.077-.1.048-.109.025-.1.009-.109-.009-.1-.011-.095L3.271,4.9l-.107-.12-.141-.073L2.843,4.67l-.2-.017-.23,0-.251.009-.257,0-.264-.009L1.374,4.61l-.256-.066-.249-.1L.642,4.282l-.2-.212L.266,3.787.128,3.422l-.06-.231L.023,2.967,0,2.753l0-.207.022-.2.043-.188.06-.188.093-.179.121-.173L.482,1.45l.169-.164.2-.153L1.087.981,1.346.83l.3-.143.33-.139L2.18.464l.2-.07L2.552.328,2.712.271,2.857.225,2.991.186,3.109.152l.1-.029L3.313.1,3.4.08l.08-.016L3.55.046l.06-.01L3.664.022,3.72.012,3.767,0Z" transform="translate(222.948 559.548) rotate(21)" fill="#fff" fill-rule="evenodd"/>
    <path id="Path_3666" data-name="Path 3666" d="M3.989,1.388h0l-.08.026-.083.019-.08.019-.076.016L3.6,1.486l-.077.02-.078.017-.084.02-.082.02-.093.029-.1.036-.108.038-.119.048-.126.055-.142.071-.16.076-.106.062-.1.059-.082.072-.071.071L2,2.249l-.055.075L1.91,2.4l-.03.071L1.87,2.55l0,.073.016.072.026.066.047.067.051.064.076.056L2.168,3l.155.06.17.031.188.01.192,0,.2-.018.209-.011L3.5,3.062h.209l.207.028.207.056.2.083.187.128.178.179.158.23.144.294.118.365.068.282.024.257-.005.25-.038.232-.064.214L5,5.861l-.108.186-.132.176-.147.16-.156.147-.17.133-.18.122L3.93,6.9l-.179.092-.181.086L3.4,7.149l-.242.1-.228.083-.2.08-.187.07L2.37,7.54l-.157.052-.139.04-.137.034L1.813,7.7l-.114.02-.115.025-.108.01-.1.016-.1,0-.1,0-.11,0L.812,6.437l.055-.008.068-.008.088-.008.1-.016.11-.019.122-.023.135-.021L1.638,6.3l.149-.036.156-.035.162-.044.164-.046.164-.061.166-.06.165-.064.162-.072.148-.1.111-.1.077-.1.048-.109.025-.1.009-.109-.009-.1-.011-.095L3.271,4.9l-.107-.12-.141-.073L2.843,4.67l-.2-.017-.23,0-.251.009-.257,0-.264-.009L1.374,4.61l-.256-.066-.249-.1L.642,4.282l-.2-.212L.266,3.787.128,3.422l-.06-.231L.023,2.967,0,2.753l0-.207.022-.2.043-.188.06-.188.093-.179.121-.173L.482,1.45l.169-.164.2-.153L1.087.981,1.346.83l.3-.143.33-.139L2.18.464l.2-.07L2.552.328,2.712.271,2.857.225,2.991.186,3.109.152l.1-.029L3.313.1,3.4.08l.08-.016L3.55.046l.06-.01L3.664.022,3.72.012,3.767,0l.222,1.388" transform="translate(222.948 559.548) rotate(21)" fill="none" stroke="#fff" stroke-miterlimit="2.613" stroke-width="0.08"/>
    <path id="Path_3667" data-name="Path 3667" d="M0,.623,1.562,0l.314,1.456.941-.376.306,1.356-1,.367.717,3.362.041.114.065.086.086.049.1.034h.116l.126-.01.133-.03.139-.041.121-.055.109-.057.1-.058.078-.059.066-.05.044-.038.027-.025.011-.01.222,1.126-.03.045-.029.039-.032.038L4.3,7.3l-.034.034-.038.036-.044.038-.043.036-.052.04-.05.032-.064.037-.062.041-.068.041-.081.044-.085.047-.091.052-.429.17-.232.073-.207.057-.194.038-.167.022-.151,0L2.078,8.12l-.123-.026-.1-.047-.087-.056-.078-.08-.067-.083-.059-.1-.052-.116-.05-.124-.035-.136L1.383,7.2Z" transform="translate(227.7 558.821) rotate(21)" fill="#fff" fill-rule="evenodd"/>
    <path id="Path_3668" data-name="Path 3668" d="M0,.623,1.562,0l.314,1.456.941-.376.306,1.356-1,.367.717,3.362.041.114.065.086.086.049.1.034h.116l.126-.01.133-.03.139-.041.121-.055.109-.057.1-.058.078-.059.066-.05.044-.038.027-.025.011-.01.222,1.126-.03.045-.029.039-.032.038L4.3,7.3l-.034.034-.038.036-.044.038-.043.036-.052.04-.05.032-.064.037-.062.041-.068.041-.081.044-.085.047-.091.052-.429.17-.232.073-.207.057-.194.038-.167.022-.151,0L2.078,8.12l-.123-.026-.1-.047-.087-.056-.078-.08-.067-.083-.059-.1-.052-.116-.05-.124-.035-.136L1.383,7.2,0,.623" transform="translate(227.7 558.821) rotate(21)" fill="none" stroke="#fff" stroke-miterlimit="2.613" stroke-width="0.08"/>
    <path id="Path_3669" data-name="Path 3669" d="M2.032,4.364l.022.1.037.1.052.1.067.1.081.093.084.081.106.083.107.068.117.065.119.05.123.049.129.03.126.019.132.007.127-.007.123-.021L3.74,5.25l.148-.039.154-.043.15-.046.151-.055.151-.059.144-.066.147-.071L4.93,4.79,5.07,4.7l.144-.1.132-.11.132-.126.137-.133.122-.153.124-.162.33,1.476-.073.082-.071.082-.076.069L5.9,5.694l-.074.063-.078.063-.08.058-.088.057-.1.057-.109.057-.114.058-.124.062-.144.066-.154.06-.172.077-.185.073-.28.1-.292.085-.3.071-.31.048-.309.025H2.685l-.311-.04-.3-.068-.3-.1-.284-.158-.269-.192L.971,5.972l-.23-.294L.529,5.326l-.183-.41L.188,4.442.137,4.251.087,4.03.045,3.793.014,3.53,0,3.255l.005-.283.033-.3.062-.3.089-.3.135-.3.17-.291L.709,1.2.979.93,1.3.681l.38-.231.447-.2L2.353.165,2.594.094,2.84.042,3.095.005,3.353,0l.261.011.257.056L4.12.151l.246.123L4.6.444l.216.214.2.267.179.319.159.382.132.444.1.506.11.355L2.014,4.371,1.831,3.156l2.041-.781-.046-.145-.06-.135L3.7,1.975l-.067-.1-.081-.091L3.478,1.7l-.091-.063L3.3,1.582l-.094-.039-.1-.027-.1-.019-.1-.009-.1,0L2.7,1.5l-.1.022-.1.028-.107.05-.094.056L2.2,1.72l-.083.071-.076.085L1.98,1.96l-.059.1-.046.1-.042.107L1.8,2.373l-.025.114L1.759,2.6l-.008.122.005.128.011.127.024.126Z" transform="translate(230.911 559.661) rotate(21)" fill="#fff" fill-rule="evenodd"/>
    <path id="Path_3670" data-name="Path 3670" d="M2.032,4.364h0l.022.1.037.1.052.1.067.1.081.093.084.081.106.083.107.068.117.065.119.05.123.049.129.03.126.019.132.007.127-.007.123-.021L3.74,5.25l.148-.039.154-.043.15-.046.151-.055.151-.059.144-.066.147-.071L4.93,4.79,5.07,4.7l.144-.1.132-.11.132-.126.137-.133.122-.153.124-.162.33,1.476-.073.082-.071.082-.076.069L5.9,5.694l-.074.063-.078.063-.08.058-.088.057-.1.057-.109.057-.114.058-.124.062-.144.066-.154.06-.172.077-.185.073-.28.1-.292.085-.3.071-.31.048-.309.025H2.685l-.311-.04-.3-.068-.3-.1-.284-.158-.269-.192L.971,5.972l-.23-.294L.529,5.326l-.183-.41L.188,4.442.137,4.251.087,4.03.045,3.793.014,3.53,0,3.255l.005-.283.033-.3.062-.3.089-.3.135-.3.17-.291L.709,1.2.979.93,1.3.681l.38-.231.447-.2L2.353.165,2.594.094,2.84.042,3.095.005,3.353,0l.261.011.257.056L4.12.151l.246.123L4.6.444l.216.214.2.267.179.319.159.382.132.444.1.506.11.355L1.587,4.575,1.4,3.36l2.468-.985-.046-.145-.06-.135L3.7,1.975l-.067-.1-.081-.091L3.478,1.7l-.091-.063L3.3,1.582l-.094-.039-.1-.027-.1-.019-.1-.009-.1,0L2.7,1.5l-.1.022-.1.028-.107.05-.094.056L2.2,1.72l-.083.071-.076.085L1.98,1.96l-.059.1-.046.1-.042.107L1.8,2.373l-.025.114L1.759,2.6l-.008.122.005.128.011.127.024.126.24,1.258" transform="translate(230.911 559.661) rotate(21)" fill="none" stroke="#fff" stroke-miterlimit="2.613" stroke-width="0.08"/>
    <path id="Path_3671" data-name="Path 3671" d="M5.132,1.675l-.091-.009-.085-.005-.1-.01-.1,0h-.1l-.109,0-.109.005-.116.007-.118.014L4.093,1.7l-.126.024-.126.031L3.707,1.8l-.134.037-.134.055L3.3,1.943,3.157,2l-.14.071-.147.078-.147.09-.139.11-.133.123-.126.143-.116.165-.1.183-.087.207-.07.235-.052.263-.023.3-.007.328.019.36.055.4.047.214.056.207.067.2.082.19.094.186.113.165.118.147.13.146.145.118.159.106.172.083.181.062.193.042.209.015.221-.005L4.159,6.9l.081-.012.089-.018.107-.029L4.554,6.8l.128-.036.13-.053.14-.056.136-.068.139-.075.136-.086.124-.1.123-.1.116-.117.1-.126.084-.137L5.984,5.7l.348,1.607-.022.043-.02.048-.029.055-.038.055-.044.07-.063.072-.075.074L5.952,7.8l-.113.093L5.7,7.976l-.16.091-.189.1-.214.1-.252.108-.29.109-.321.108-.272.076-.283.05-.293.018-.3-.01-.3-.034-.305-.076-.3-.1-.3-.143-.287-.18L1.36,7.967,1.1,7.707.859,7.4.64,7.053l-.181-.39L.294,6.219.168,5.725.121,5.476.081,5.23.05,4.99.022,4.758.006,4.535,0,4.311V4.092l.009-.2.013-.21.019-.2.033-.2L.118,3.1l.044-.181.059-.181.064-.168L.356,2.4.44,2.237l.087-.16.1-.15.1-.146.119-.146L.969,1.5l.131-.13.138-.127.153-.128L1.547,1,1.714.891,1.892.78l.179-.1.194-.1.2-.09L2.676.388,2.858.324l.18-.06.176-.05L3.391.169,3.556.127,3.723.1,3.881.068,4.03.049,4.173.033,4.3.02,4.419.012l.106,0h.09L4.69,0l.059,0,.039,0Z" transform="translate(241.26 557.597) rotate(21)" fill="#fff" fill-rule="evenodd"/>
    <path id="Path_3672" data-name="Path 3672" d="M5.132,1.675h0l-.091-.009-.085-.005-.1-.01-.1,0h-.1l-.109,0-.109.005-.116.007-.118.014L4.093,1.7l-.126.024-.126.031L3.707,1.8l-.134.037-.134.055L3.3,1.943,3.157,2l-.14.071-.147.078-.147.09-.139.11-.133.123-.126.143-.116.165-.1.183-.087.207-.07.235-.052.263-.023.3-.007.328.019.36.055.4.047.214.056.207.067.2.082.19.094.186.113.165.118.147.13.146.145.118.159.106.172.083.181.062.193.042.209.015.221-.005L4.159,6.9l.081-.012.089-.018.107-.029L4.554,6.8l.128-.036.13-.053.14-.056.136-.068.139-.075.136-.086.124-.1.123-.1.116-.117.1-.126.084-.137L5.984,5.7l.348,1.607-.022.043-.02.048-.029.055-.038.055-.044.07-.063.072-.075.074L5.952,7.8l-.113.093L5.7,7.976l-.16.091-.189.1-.214.1-.252.108-.29.109-.321.108-.272.076-.283.05-.293.018-.3-.01-.3-.034-.305-.076-.3-.1-.3-.143-.287-.18L1.36,7.967,1.1,7.707.859,7.4.64,7.053l-.181-.39L.294,6.219.168,5.725.121,5.476.081,5.23.05,4.99.022,4.758.006,4.535,0,4.311V4.092l.009-.2.013-.21.019-.2.033-.2L.118,3.1l.044-.181.059-.181.064-.168L.356,2.4.44,2.237l.087-.16.1-.15.1-.146.119-.146L.969,1.5l.131-.13.138-.127.153-.128L1.547,1,1.714.891,1.892.78l.179-.1.194-.1.2-.09L2.676.388,2.858.324l.18-.06.176-.05L3.391.169,3.556.127,3.723.1,3.881.068,4.03.049,4.173.033,4.3.02,4.419.012l.106,0h.09L4.69,0l.059,0,.039,0,.344,1.675" transform="translate(241.26 557.597) rotate(21)" fill="none" stroke="#fff" stroke-miterlimit="2.613" stroke-width="0.08"/>
    <path id="Path_3673" data-name="Path 3673" d="M6.456,7.883l-1.561.624-.138-.672-.022-.056-.045.147-.056.14-.059.128L4.5,8.314l-.071.115-.076.1-.081.093-.085.092L4.1,8.8,4,8.869l-.1.071L3.8,9l-.107.062-.1.055-.111.05-.114.044-.3.1-.295.047-.285,0-.278-.039-.268-.083L1.68,9.116l-.241-.144-.23-.183L1,8.581.8,8.352.627,8.1l-.161-.27L.335,7.55.224,7.256l-.086-.3L.073,6.647l-.05-.364L0,5.925l0-.334.034-.327L.08,4.952.16,4.659l.094-.272.111-.259L.5,3.885.649,3.66l.164-.209L.988,3.27,1.183,3.1l.205-.14L1.6,2.834l.227-.1.166-.062.164-.045.159-.03.151-.013.148-.006.132,0,.138.017.126.021.117.032.113.04.1.044.1.047.084.049.08.054.072.05.061.053L3.247.614,4.781,0Z" transform="translate(256.901 557.256) rotate(21)" fill="#fff" fill-rule="evenodd"/>
    <path id="Path_3674" data-name="Path 3674" d="M6.456,7.883l-1.561.624-.138-.672-.022-.056-.045.147-.056.14-.059.128L4.5,8.314l-.071.115-.076.1-.081.093-.085.092L4.1,8.8,4,8.869l-.1.071L3.8,9l-.107.062-.1.055-.111.05-.114.044-.3.1-.295.047-.285,0-.278-.039-.268-.083L1.68,9.116l-.241-.144-.23-.183L1,8.581.8,8.352.627,8.1l-.161-.27L.335,7.55.224,7.256l-.086-.3L.073,6.647l-.05-.364L0,5.925l0-.334.034-.327L.08,4.952.16,4.659l.094-.272.111-.259L.5,3.885.649,3.66l.164-.209L.988,3.27,1.183,3.1l.205-.14L1.6,2.834l.227-.1.166-.062.164-.045.159-.03.151-.013.148-.006.132,0,.138.017.126.021.117.032.113.04.1.044.1.047.084.049.08.054.072.05.061.053L3.247.614,4.781,0,6.456,7.883" transform="translate(256.901 557.256) rotate(21)" fill="none" stroke="#fff" stroke-miterlimit="2.613" stroke-width="0.08"/>
    <path id="Path_3675" data-name="Path 3675" d="M1.5,3.634,1.65,3.56l.132-.092L1.9,3.376l.1-.115L2.1,3.147l.079-.129.068-.138L2.3,2.738l.04-.146.03-.157.02-.158.009-.16V1.954l-.013-.165-.02-.169-.034-.162L2.3,1.29l-.049-.172-.06-.15L2.119.811,2.044.671,1.965.54,1.87.419l-.1-.111-.1-.092L1.562.138,1.453.078,1.336.032,1.214,0l-.12,0L.976.014.852.048.706.121.574.2.462.3.354.406.271.523.2.66.137.792.084.941.051,1.1l-.028.163L0,1.421l0,.173.005.174.014.171.02.182L.072,2.3l.07.259.12.265.15.26.178.236L.8,3.5l.222.126.235.049Z" transform="translate(257.238 561.544) rotate(21)" fill="#fcb331" fill-rule="evenodd"/>
    <path id="Path_3676" data-name="Path 3676" d="M5.661,4.47l.275,1.343-1.42.567-.053-.248-.056-.221-.039-.167-.012-.094-.043.122L4.26,5.9l-.072.128L4.1,6.154,4,6.287l-.115.124-.118.126-.131.118-.142.116-.148.1-.152.1-.158.09-.16.076-.162.071-.164.046L2.387,7.3l-.218.027-.2.017-.186-.01L1.6,7.3l-.16-.043-.154-.056-.132-.07-.125-.08L.919,6.961l-.106-.1-.1-.106L.634,6.645.561,6.524.493,6.4.43,6.282.38,6.157.31,5.931.26,5.709.239,5.488l0-.22.018-.217.036-.2.056-.205.078-.194.09-.186L.623,4.08l.12-.174.134-.156L1.025,3.6l.163-.136.17-.126.184-.114.01,0L1.579,3.2l.037-.02.059-.032.064-.038.076-.037L1.9,3.03l.089-.051.093-.05L2.17,2.88l.1-.046.087-.048.085-.041.084-.04L2.6,2.669l.061-.025.131-.052.135-.047L3.056,2.5l.125-.05.1-.034.08-.026.059-.016.017-.007,0-.044-.007-.116L3.41,2.077l-.032-.114-.072-.114-.1-.091L3.1,1.682,2.98,1.634,2.842,1.6l-.14,0-.146.02L2.4,1.667l-.16.06-.173.061-.175.07-.177.078-.182.086-.172.088L1.191,2.2l-.165.093-.161.091-.152.092-.137.086-.123.083-.11.084L.255,2.8l-.063.072-.05.059L0,1.413l.1-.1.106-.1.119-.093.124-.083L.577.96.715.88.853.8,1,.728,1.153.652l.162-.07L1.482.507,1.657.436,1.836.365,2.023.291l.2-.072.2-.075L2.585.093l.178-.04L2.954.023,3.155,0h.2l.2.011.207.028.2.043.19.069.179.085.174.107.153.135.128.159L4.9.815l.085.213.057.239Z" transform="translate(217.282 559.89) rotate(21)" fill="#fff" fill-rule="evenodd"/>
    <path id="Path_3677" data-name="Path 3677" d="M5.661,4.47l.275,1.343-1.42.567-.053-.248-.056-.221-.039-.167-.012-.094-.043.122L4.26,5.9l-.072.128L4.1,6.154,4,6.287l-.115.124-.118.126-.131.118-.142.116-.148.1-.152.1-.158.09-.16.076-.162.071-.164.046L2.387,7.3l-.218.027-.2.017-.186-.01L1.6,7.3l-.16-.043-.154-.056-.132-.07-.125-.08L.919,6.961l-.106-.1-.1-.106L.634,6.645.561,6.524.493,6.4.43,6.282.38,6.157.31,5.931.26,5.709.239,5.488l0-.22.018-.217.036-.2.056-.205.078-.194.09-.186L.623,4.08l.12-.174.134-.156L1.025,3.6l.163-.136.17-.126.184-.114.01,0L1.579,3.2l.037-.02.059-.032.064-.038.076-.037L1.9,3.03l.089-.051.093-.05L2.17,2.88l.1-.046.087-.048.085-.041.084-.04L2.6,2.669l.061-.025.131-.052.135-.047L3.056,2.5l.125-.05.1-.034.08-.026.059-.016.017-.007,0-.044-.007-.116L3.41,2.077l-.032-.114-.072-.114-.1-.091L3.1,1.682,2.98,1.634,2.842,1.6l-.14,0-.146.02L2.4,1.667l-.16.06-.173.061-.175.07-.177.078-.182.086-.172.088L1.191,2.2l-.165.093-.161.091-.152.092-.137.086-.123.083-.11.084L.255,2.8l-.063.072-.05.059L0,1.413l.1-.1.106-.1.119-.093.124-.083L.577.96.715.88.853.8,1,.728,1.153.652l.162-.07L1.482.507,1.657.436,1.836.365,2.023.291l.2-.072.2-.075L2.585.093l.178-.04L2.954.023,3.155,0h.2l.2.011.207.028.2.043.19.069.179.085.174.107.153.135.128.159L4.9.815l.085.213.057.239.62,3.2" transform="translate(217.282 559.89) rotate(21)" fill="none" stroke="#fff" stroke-miterlimit="2.613" stroke-width="0.08"/>
    <path id="Path_3678" data-name="Path 3678" d="M1.712.049,1.694.022,1.66.005,1.619,0l-.06.012L1.493.025,1.417.049,1.333.083,1.248.117,1.16.158,1.07.207.981.255.9.3.817.349.744.4.684.441.628.484.595.509.556.545.5.591.452.646.392.707.336.777.273.848.217.922l-.056.086L.11,1.1l-.042.1-.035.091-.027.1L0,1.472v.1l.019.1.07.194.091.141.1.09.108.054L.5,2.177l.109,0,.1-.02L.794,2.12l.167-.071.146-.076.137-.081L1.359,1.8l.1-.083.087-.094.075-.089.058-.1.052-.087.041-.094L1.8,1.177l.018-.085.012-.083L1.84.926l0-.075L1.836.784,1.815.6,1.78.4l-.04-.2Z" transform="translate(217.875 563.859) rotate(21)" fill="#ed1c2e" fill-rule="evenodd"/>
    <path id="Path_3679" data-name="Path 3679" d="M3.214,10.317l-1.532.612L0,3.018,2.667,1.953l2.01,4.29.085-5.128L7.547,0,9.2,7.923l-1.533.613L6.424,2.62l-.062.026L6.28,9.091l-1.73.693-.1-.228-.284-.6-.4-.853L3.3,7.124l-.46-.989-.4-.862-.295-.627-.121-.264-.017.006L1.972,4.4l-.033.014Z" transform="translate(209.124 556.852) rotate(21)" fill="#fff" fill-rule="evenodd"/>
    <path id="Path_3680" data-name="Path 3680" d="M3.214,10.317l-1.532.612L0,3.018,2.667,1.953l2.01,4.29.085-5.128L7.547,0,9.2,7.923l-1.533.613L6.424,2.62l-.062.026L6.28,9.091l-1.73.693-.1-.228-.284-.6-.4-.853L3.3,7.124l-.46-.989-.4-.862-.295-.627-.121-.264-.017.006L1.972,4.4l-.033.014,1.274,5.9" transform="translate(209.124 556.852) rotate(21)" fill="none" stroke="#fff" stroke-miterlimit="2.613" stroke-width="0.08"/>
    <path id="Path_3681" data-name="Path 3681" d="M5.638,4.467l.269,1.345-1.413.567-.082-.237-.076-.205-.06-.15-.016-.071-.039.112-.051.119L4.1,6.064l-.081.123-.09.121-.107.121-.115.124-.119.114-.131.107-.141.107-.146.092-.148.085-.159.076-.156.071-.16.043-.161.037-.223.031-.2.017-.187-.01L1.593,7.3l-.161-.043L1.283,7.2l-.132-.072-.124-.08L.912,6.953l-.1-.1-.1-.107L.639,6.63.565,6.511.5,6.389.434,6.268.385,6.146.309,5.918.259,5.7.231,5.48l0-.222L.24,5.045l.043-.207.054-.2.074-.192.095-.187.1-.181L.73,3.9.869,3.74l.143-.147.161-.136L1.34,3.33l.177-.111.012,0L1.554,3.2l.04-.021.052-.029.07-.041.076-.038.08-.044.085-.05.092-.05.1-.05.093-.045.092-.05.088-.043L2.5,2.705l.076-.037.061-.024.135-.055.138-.047.131-.048.124-.05.109-.036.095-.034.052-.012.022-.009L3.434,2.31,3.411,2.2l-.03-.125L3.35,1.964,3.277,1.85l-.089-.1-.115-.073-.117-.049L2.823,1.6l-.138,0-.137.016-.139.042-.159.059-.173.062L1.9,1.845l-.176.078-.183.083L1.37,2.1,1.2,2.185l-.166.093-.161.09-.152.09-.136.09-.124.083-.11.083-.088.073L.2,2.86l-.049.059L0,1.4l.1-.1.112-.1.114-.09L.453,1.03.581.947.713.869.851.787,1,.716,1.152.639,1.314.57,1.475.5,1.649.427,1.823.358,2,.287,2.2.215,2.392.143l.163-.05L2.736.053,2.925.022,3.126,0h.2l.205.008.209.028.2.043.19.07.184.083.174.106.151.135.134.158.117.176.085.213.062.237Z" transform="translate(246.779 559.492) rotate(21)" fill="#fff" fill-rule="evenodd"/>
    <path id="Path_3682" data-name="Path 3682" d="M.32,1.39l.02-.045L.074,0,0,.017.27,1.36l.02-.048.03.078.028-.015L.341,1.346Z" transform="translate(250.408 565.617) rotate(21)" fill="#fff" fill-rule="evenodd"/>
    <path id="Path_3683" data-name="Path 3683" d="M0,.62.049.644,1.462.078,1.432,0,.017.566.068.593,0,.62.01.66.049.644Z" transform="translate(248.884 566.418) rotate(21)" fill="#fff" fill-rule="evenodd"/>
    <path id="Path_3684" data-name="Path 3684" d="M.074.024.006,0,.018.1.074.254l.081.2L.237.694.305.666.222.429.154.222.086.073.068.028,0,0Z" transform="translate(248.708 566.273) rotate(21)" fill="#fff" fill-rule="evenodd"/>
    <path id="Path_3685" data-name="Path 3685" d="M.016,1.62h0l.167-.039.161-.046L.5,1.467l.16-.077L.811,1.3.958,1.21,1.1,1.1l.14-.11L1.356.882l.12-.127L1.583.634,1.671.506,1.756.381,1.826.26,1.88.136,1.92.02,1.846,0l-.04.112L1.76.223,1.689.342,1.614.465,1.522.581,1.415.7,1.306.823,1.189.937l-.13.1-.14.11-.146.091-.141.083L.471,1.4l-.155.069-.161.045L0,1.546Z" transform="translate(246.997 565.611) rotate(21)" fill="#fff" fill-rule="evenodd"/>
    <path id="Path_3686" data-name="Path 3686" d="M0,.033H0L.054.153.117.274.188.4.261.524.339.636l.1.111.1.111L.659.946l.126.088L.916,1.1l.158.063L1.24,1.2l.182.03.194.011.206-.021.224-.028L2.03,1.121l-.223.032-.2.013-.181-.011-.178-.021L1.1,1.09.957,1.035.823.964.7.89.592.8.494.7.4.6.324.485.249.365.183.247.122.126.078,0Z" transform="translate(244.987 565.292) rotate(21)" fill="#fff" fill-rule="evenodd"/>
    <path id="Path_3687" data-name="Path 3687" d="M1.314,0h0L1.13.115.959.243.8.378.649.529.51.688.387.87l-.106.181-.093.19-.079.2-.055.207L.01,1.858,0,2.075,0,2.3l.032.221.053.229.07.228.078-.033L.153,2.72.106,2.506.079,2.293l0-.222.013-.207.041-.2.054-.2.068-.193.1-.18.1-.179L.572.743.71.584.847.436,1.008.3,1.169.177,1.341.07Z" transform="translate(245.89 562.535) rotate(21)" fill="#fff" fill-rule="evenodd"/>
    <path id="Path_3688" data-name="Path 3688" d="M1.114,0h0L1.052.026.978.069.9.1.813.149.721.2.627.24l-.1.052L.439.343.354.391.274.435.2.473.127.514.075.54.033.564.011.58,0,.583l.027.07L.038.648.07.629.1.609.155.581.226.54.3.5.38.459.467.409.559.36l.1-.051L.747.264.839.216.929.173,1,.137,1.083.1,1.145.08Z" transform="translate(247.296 562.49) rotate(21)" fill="#fff" fill-rule="evenodd"/>
    <path id="Path_3689" data-name="Path 3689" d="M.784.043.808,0,.785.01.734.025l-.1.031L.529.089.4.136.275.188.135.231,0,.284l.031.08L.167.31.3.255.437.217.56.167.667.124.76.093.813.076.836.068.858.026.836.068l.029,0L.858.026Z" transform="translate(248.419 562.625) rotate(21)" fill="#fff" fill-rule="evenodd"/>
    <path id="Path_3690" data-name="Path 3690" d="M.006.029,0,.03.037.14.065.258.09.367l0,.045L.167.4.161.352.138.245.1.114.079,0H.073Z" transform="translate(249.191 562.533) rotate(21)" fill="#fff" fill-rule="evenodd"/>
    <path id="Path_3691" data-name="Path 3691" d="M.028.131l0,.007L.162.091.293.076.427.083.549.112l.11.049L.766.228.852.311l.069.11L.989.394.914.273.821.167.7.093.572.038.432,0,.29,0,.146.018,0,.058V.063Z" transform="translate(248.48 561.85) rotate(21)" fill="#fff" fill-rule="evenodd"/>
    <path id="Path_3692" data-name="Path 3692" d="M0,1.306l.069.011.045-.05L.171,1.2l.083-.069.11-.083L.488.959.622.875.776.78.931.692,1.1.6,1.27.51,1.442.42,1.626.336,1.8.264l.175-.07L2.15.126,2.31.068,2.282,0l-.16.058L1.948.115,1.773.184,1.6.267,1.417.354,1.243.443,1.07.532.9.624.738.717.585.808.45.9.326.979l-.111.083-.094.076-.069.072L0,1.279l.068.01Z" transform="translate(246.353 561.094) rotate(21)" fill="#fff" fill-rule="evenodd"/>
    <path id="Path_3693" data-name="Path 3693" d="M.014,0,.005.036.154,1.553l.07-.016L.076.022.065.058.014,0,0,.014.005.036Z" transform="translate(246.327 560.82) rotate(21)" fill="#fff" fill-rule="evenodd"/>
    <path id="Path_3694" data-name="Path 3694" d="M2.405,0h0l-.2.064L2.015.136,1.835.21,1.66.279,1.485.348,1.327.426,1.166.5,1.013.57.864.643.722.726.589.8.46.889.337.971l-.121.094-.111.1-.1.1.051.058.1-.1.113-.1.107-.089L.5.951.628.868.76.788.892.71,1.04.637,1.194.562l.16-.069L1.517.427,1.69.357,1.866.288,2.047.217,2.24.143,2.432.066Z" transform="translate(246.755 559.668) rotate(21)" fill="#fff" fill-rule="evenodd"/>
    <path id="Path_3695" data-name="Path 3695" d="M2.7,1.288h0l-.065-.244L2.547.832,2.429.65,2.292.489,2.134.35,1.956.237,1.764.151,1.574.084,1.369.042,1.158.007.946,0l-.2,0L.539.028.349.057.163.1,0,.151.026.217.19.168.365.128.554.1l.2-.018.2,0,.2.011L1.358.11l.194.048.19.067.176.08.171.1.144.133.133.147L2.48.859l.085.213.059.231Z" transform="translate(249.006 560.372) rotate(21)" fill="#fff" fill-rule="evenodd"/>
    <path id="Path_3696" data-name="Path 3696" d="M.672,3.211h0L.073,0,0,.014.6,3.228Z" transform="translate(250.987 562.454) rotate(21)" fill="#fff" fill-rule="evenodd"/>
    <path id="Path_3697" data-name="Path 3697" d="M1.681.049,1.657.02,1.622,0H1.575L1.513,0l-.065.02L1.372.048,1.288.079,1.207.12,1.12.168,1.034.216.95.264.87.308.791.359.723.4.655.444.6.48.568.5.528.534.479.575.427.622.366.686.312.745.249.818.2.9.144.977l-.05.093-.037.086-.034.1-.019.1L0,1.453l0,.1.021.1.071.194.09.141.09.095.1.055.107.025.11,0,.1-.022.1-.035L.96,2.037l.152-.08.133-.086.114-.091.107-.1.086-.092.078-.1.065-.1L1.749,1.3l.037-.1L1.821,1.1l.021-.094L1.855.924V.848l0-.076L1.845.7,1.8.536,1.768.361,1.726.2Z" transform="translate(247.435 563.46) rotate(21)" fill="#fcb331" fill-rule="evenodd"/>
    <path id="Path_3698" data-name="Path 3698" d="M.058,1.136.016,1,0,.832.025.665.073.507.155.365.261.245.391.14.541.06.706.014.871,0l.164.014.154.048.143.08.133.1.107.132L1.635.5l-.17.067L1.42.474,1.336.362l-.1-.091L1.123.206,1,.162.872.15.73.16.6.2.472.262.364.353.28.45.222.566.185.692.175.825l.016.14.029.1Z" transform="translate(261.58 564.931) rotate(21)" fill="#fff" fill-rule="evenodd"/>
    <path id="Path_3699" data-name="Path 3699" d="M.135.5,0,.16.31.036.379.015.446,0H.5L.546.007.588.03.624.055.65.089.673.126.686.179.692.223l0,.042L.682.277l-.237.1L.465.36.5.339.533.313.556.289.569.266.577.241l0-.031L.559.172.542.144.524.127.5.122.48.117.449.124l-.03,0L.391.141.358.155.188.223.276.441Z" transform="translate(261.825 565.491) rotate(21)" fill="#fff" fill-rule="evenodd"/>
    <path id="Path_3700" data-name="Path 3700" d="M0,.631.007.668.089.825.194.958l.134.1.14.074.158.047L.79,1.2l.164-.014.165-.044.15-.083L1.4.961,1.505.834,1.583.69l.052-.15L1.66.372,1.646.2,1.6.032,1.577,0l-.17.067L1.427.1,1.47.239l.016.138L1.473.505,1.437.631,1.379.746,1.3.852,1.187.943,1.063,1l-.134.042-.14.01L.657,1.034.536.991.423.925.325.842.242.731.177.6.163.564Z" transform="translate(261.453 565.411) rotate(21)" fill="#fff" fill-rule="evenodd"/>
    <path id="Path_3701" data-name="Path 3701" d="M0,.221.137.564.278.509.164.226.305.17.589.383.7.34.418.125.459.108.492.083.523.059.541.025.547,0,.31.1.284.115.143.171l0-.006Z" transform="translate(261.852 565.79) rotate(21)" fill="#fff" fill-rule="evenodd"/>
    <path id="Path_3702" data-name="Path 3702" d="M.065,1.173h0L.016,1,0,.832.024.665.073.509.153.365.261.245.389.14.54.06.7.014.869,0l.164.014.155.048.143.08.132.1L1.57.379l.082.157L1.7.708l.014.169-.024.169-.052.149-.078.143-.107.127-.129.1-.151.082-.165.044-.164.014L.682,1.689.524,1.641l-.14-.073L.251,1.462.145,1.329l-.08-.157m.777.048L.7,1.277.428.6.739.472.809.451.875.435H.927L.974.442l.042.023.038.023.025.034L1.1.56l.013.053,0,.044,0,.042L1.1.735,1.086.77,1.056.793,1.022.818.981.835l.284.216-.113.044L.868.88.727.937l.115.284M.848.827h0L.894.8.933.774.963.749.987.725,1,.7,1.007.679V.648L.991.609.972.582.954.565.932.56.91.555.88.562.849.567.821.579.788.593.618.66.709.886.848.827m.272.681h0l.125-.061.109-.09.083-.106L1.5,1.136l.036-.125L1.546.882,1.529.743,1.487.6,1.422.474,1.337.362l-.1-.091L1.124.207,1,.163.872.151.731.16.6.2.473.264.365.354l-.084.1L.223.568.186.694.176.826l.016.14.044.14L.3,1.238l.084.11.1.083L.594,1.5l.121.043.131.021.141-.01.133-.043" transform="translate(261.58 564.924) rotate(21)" fill="none" stroke="#fff" stroke-miterlimit="2.613" stroke-width="0.08"/>
    <path id="Path_3703" data-name="Path 3703" d="M1.362,7.791l1.59-.638L2.237,3.719,2.21,3.586l-.016-.138-.015-.138-.005-.14.008-.146.02-.146.027-.142.046-.142.065-.138.076-.133.1-.136.119-.128.14-.119.164-.119.184-.113.216-.1.077-.033.045-.016.016-.007L3.149,0,3,.075,2.851.154,2.72.237,2.6.33,2.5.425l-.1.1-.089.1L2.232.749,2.161.867,2.1.982l-.053.126-.054.126-.046.129L1.9,1.506l-.044.136-.036.142L1.586.7,0,1.332Z" transform="translate(252.179 559.278) rotate(21)" fill="#fff" fill-rule="evenodd"/>
    <path id="Path_3704" data-name="Path 3704" d="M1.362,7.791l1.59-.638L2.237,3.719,2.21,3.586l-.016-.138-.015-.138-.005-.14.008-.146.02-.146.027-.142.046-.142.065-.138.076-.133.1-.136.119-.128.14-.119.164-.119.184-.113.216-.1.077-.033.045-.016.016-.007L3.149,0,3,.075,2.851.154,2.72.237,2.6.33,2.5.425l-.1.1-.089.1L2.232.749,2.161.867,2.1.982l-.053.126-.054.126-.046.129L1.9,1.506l-.044.136-.036.142L1.586.7,0,1.332,1.362,7.791" transform="translate(252.179 559.278) rotate(21)" fill="none" stroke="#fff" stroke-miterlimit="2.613" stroke-width="0.08"/>
    <path id="Path_3705" data-name="Path 3705" d="M1.36,7.863l1.59-.635.027-.011L2.235,3.794l-.027-.133-.02-.13L2.17,3.4l-.006-.129V3.141l.014-.13L2.2,2.884l.041-.128L2.3,2.635l.066-.126.1-.115.11-.116.137-.115.157-.116.18-.1.214-.106.016-.006.025,0,.031,0,.029-.012.03-.006.023,0h.019l.007,0,0-.025L3.43,1.7l-.016-.11-.023-.135-.017-.162-.024-.174L3.336.94,3.324.761l0-.124L3.341.508l.013-.13L3.372.258l.015-.1L3.4.072l.012-.05,0-.022h0l-.027,0L3.357.01,3.315.022,3.277.037,3.229.049,3.186.058,3.148.073l-.17.083-.152.08L2.692.322l-.123.09L2.457.508l-.1.1-.085.1L2.2.82,2.137.93l-.057.121-.05.118-.048.13-.046.129L1.9,1.567l-.039.146-.041.146L1.616.76,0,1.405Z" transform="translate(236.644 559.429) rotate(21)" fill="#fff" fill-rule="evenodd"/>
    <path id="Path_3706" data-name="Path 3706" d="M1.36,7.863l1.59-.635.027-.011L2.235,3.794l-.027-.133-.02-.13L2.17,3.4l-.006-.129V3.141l.014-.13L2.2,2.884l.041-.128L2.3,2.635l.066-.126.1-.115.11-.116.137-.115.157-.116.18-.1.214-.106.016-.006.025,0,.031,0,.029-.012.03-.006.023,0h.019l.007,0,0-.025L3.43,1.7l-.016-.11-.023-.135-.017-.162-.024-.174L3.336.94,3.324.761l0-.124L3.341.508l.013-.13L3.372.258l.015-.1L3.4.072l.012-.05,0-.022h0l-.027,0L3.357.01,3.315.022,3.277.037,3.229.049,3.186.058,3.148.073l-.17.083-.152.08L2.692.322l-.123.09L2.457.508l-.1.1-.085.1L2.2.82,2.137.93l-.057.121-.05.118-.048.13-.046.129L1.9,1.567l-.039.146-.041.146L1.616.76,0,1.405,1.36,7.863" transform="translate(236.644 559.429) rotate(21)" fill="none" stroke="#fff" stroke-miterlimit="2.613" stroke-width="0.08"/>
    <path id="Path_3707" data-name="Path 3707" d="M.023,1,.014.979,0,.815.027.655.078.5.162.365.269.242.4.147.551.067.716.021.878,0l.164.014.153.043.141.074.13.1.106.129L1.58.38,1.416.445l-.08-.1-.1-.086L1.124.191,1,.147.871.128.73.138.6.179.472.242.362.33.281.436.223.55.186.676.174.8.187.937Z" transform="translate(261.676 572.123) rotate(21)" fill="#fcb331" fill-rule="evenodd"/>
    <path id="Path_3708" data-name="Path 3708" d="M.08.368,0,.171.311.046.377.018.444,0,.5,0,.542,0,.581.021.617.048.645.083.672.131.558.176.547.147.529.123.511.1.487.1.467.093.436.1.407.107.378.119.346.131.176.2.22.311Z" transform="translate(261.931 572.692) rotate(21)" fill="#fcb331" fill-rule="evenodd"/>
    <path id="Path_3709" data-name="Path 3709" d="M.033.2,0,.065.164,0l0,.006L.2.128Z" transform="translate(261.362 573.008) rotate(21)" fill="#fcb331" fill-rule="evenodd"/>
    <path id="Path_3710" data-name="Path 3710" d="M.049.361,0,.237.139.18.185.293.325.237.371.2.41.183.439.157.464.136.477.111.483.089V.056l0-.011L.592,0,.6.041.6.08.6.114.584.146Z" transform="translate(261.959 572.84) rotate(21)" fill="#fcb331" fill-rule="evenodd"/>
    <path id="Path_3711" data-name="Path 3711" d="M.061.185,0,.07,0,.065.165,0,.231.117Z" transform="translate(262.861 572.988) rotate(21)" fill="#fcb331" fill-rule="evenodd"/>
    <path id="Path_3712" data-name="Path 3712" d="M0,.637.006.653.089.809.2.944l.132.1.143.08.159.049.161.013.165-.013L1.12,1.13l.151-.079L1.4.948,1.508.823,1.587.679,1.635.523,1.661.358,1.645.188,1.6.017,1.591,0l-.17.068.006.017L1.47.224l.017.138L1.473.493,1.438.617,1.38.732,1.3.837,1.188.925,1.063.988l-.134.041-.14.01L.658,1.02.536.977.424.912.326.827.242.716.177.585.172.567Z" transform="translate(261.55 572.593) rotate(21)" fill="#fcb331" fill-rule="evenodd"/>
    <path id="Path_3713" data-name="Path 3713" d="M0,.215.13.54.271.484.159.2.3.146.582.36.695.313.411.1.453.085.486.06.516.032.535,0Z" transform="translate(261.952 572.988) rotate(21)" fill="#fcb331" fill-rule="evenodd"/>
  </g>
</svg>
