<?xml version="1.0" encoding="UTF-8"?>
<svg width="204px" height="40px" viewBox="0 0 204 40" version="1.1" xmlns="http://www.w3.org/2000/svg" xmlns:xlink="http://www.w3.org/1999/xlink">
    <title>Red Logo</title>
    <g id="Page-1" stroke="none" stroke-width="1" fill="none" fill-rule="evenodd">
        <g id="Desktop-HD" transform="translate(-1193.000000, -1418.000000)" fill="#ED1C24" fill-rule="nonzero">
            <g id="Path_1" transform="translate(1193.003001, 1418.000000)">
                <path d="M203.276999,8.303 C203.276999,11.2157498 200.915749,13.577 198.002999,13.577 C195.09025,13.577 192.728999,11.2157498 192.728999,8.303 C192.728999,5.39025023 195.09025,3.029 198.002999,3.029 C200.915749,3.029 203.276999,5.39025023 203.276999,8.303 Z M194.997999,25.085 C194.997999,33.1795614 188.436061,39.7415 180.341499,39.7415 C172.246938,39.7415 165.684999,33.1795614 165.684999,25.085 C165.623357,33.1324789 159.084643,39.625064 151.03693,39.6297313 C142.989216,39.6343985 136.442976,33.149402 136.371999,25.102 C136.366868,31.1512641 132.643434,36.5750501 127.000104,38.7536862 C121.356775,40.9323222 114.954675,39.4175501 110.885999,34.941 C109.089763,32.9838823 107.865268,30.5712132 107.345999,27.966 L85.5349993,27.955 L85.8939993,28.824 C87.0226908,30.9766929 89.070228,32.4982674 91.4569993,32.958 C92.1665037,33.0888152 92.886537,33.1540902 93.6079993,33.153 L93.9669993,33.145 C95.4821387,33.1166707 96.9652244,32.7037466 98.2769993,31.945 L98.9769993,31.499 C99.4075435,31.1569534 100.004861,31.1171322 100.476999,31.399 L104.376999,33.55 C104.733515,33.7444276 104.973589,34.0996911 105.020999,34.503 C105.068391,34.8836656 104.926006,35.2633586 104.639999,35.519 L103.605999,36.45 C103.571482,36.4797276 103.533548,36.5052404 103.492999,36.526 L103.451999,36.551 C100.74705,38.6415777 97.4185606,39.7635168 94,39.737 C93.8269993,39.746 93.6659993,39.751 93.4919993,39.751 C93.0329993,39.751 92.5919993,39.737 92.1589993,39.707 L91.3589993,39.645 C83.8883189,38.8306877 78.2560575,32.4784384 78.3419993,24.964 C78.3588255,23.1887387 78.7060775,21.432132 79.3659993,19.784 L79.3659993,19.784 L79.2659993,19.667 C77.5431244,17.6719173 74.9525282,16.6468855 72.3309993,16.923 C68.2829105,17.2353435 65.1852945,20.6579149 65.2769993,24.717 L65.1409993,37.988 C65.1393466,38.9133341 64.3893342,39.6628992 63.4639993,39.664 L60.2509993,39.664 C59.3447669,39.662897 58.6105502,38.9282329 58.6099993,38.022 L58.6099993,25.37 C58.4786967,33.4214671 51.8741192,39.8578446 43.8219439,39.7814451 C35.7697686,39.7050456 29.2885065,33.144509 29.3099993,25.092 C29.3075143,33.184854 22.7456042,39.7437423 14.65275,39.7424998 C6.55989575,39.7412573 0,33.1803543 0,25.0875 C0,16.9946457 6.55989575,10.4337427 14.65275,10.4325002 C22.7456042,10.4312577 29.3075143,16.990146 29.3099993,25.083 C29.2858412,17.0293897 35.7666567,10.46624 43.8199303,10.3887307 C51.8732039,10.3112214 58.4791422,16.7484166 58.6099993,24.801 L58.6099993,12.501 C58.6111001,11.5751128 59.3611129,10.8246527 60.2869993,10.823 L63.4869993,10.823 C64.3930035,10.8246526 65.1268986,11.558995 65.1279993,12.465 L65.1279993,13.224 C67.0409128,11.6524815 69.3721973,10.6756086 71.8339993,10.414 C75.9691463,10.0007609 80.0683417,11.4868296 82.9779993,14.454 C86.8375356,10.8020387 92.3742322,9.53084472 97.4402119,11.1335584 C102.506192,12.736272 106.304254,16.9606849 107.360999,22.168 L107.360999,22.168 C108.303552,17.4779295 111.480147,13.5452339 115.867059,11.6373092 C120.25397,9.72938456 125.296655,10.0874084 129.369999,12.596 L129.746999,12.829 L129.766999,1.892 C129.771386,0.848509749 130.616507,0.00383525149 131.659999,0 L134.512999,0 C135.55649,0.00438663397 136.401164,0.849507577 136.404999,1.893 L136.404999,1.893 L136.374999,25.041 C136.451316,16.993147 143.002633,10.5122893 151.050841,10.5229972 C159.099049,10.5337051 165.633098,17.0319724 165.687999,25.08 C165.687999,16.9854386 172.249938,10.4235 180.344499,10.4235 C188.439061,10.4235 195.000999,16.9854386 195.000999,25.08 L194.997999,25.085 Z M22.6889993,25.085 C22.6885944,21.8360864 20.7309709,18.9073819 17.7290952,17.6647308 C14.7272194,16.4220796 11.2723635,17.1102437 8.97574988,19.4082877 C6.6791363,21.7063317 5.99312342,25.1616154 7.23764337,28.1627169 C8.48216332,31.1638183 11.4120861,33.119618 14.6609993,33.118001 C19.0941786,33.1119352 22.6856947,29.5181822 22.6889993,25.085 L22.6889993,25.085 Z M51.9889993,25.085 C51.9856852,20.6520723 48.3895962,17.0610575 43.9566683,17.064001 C39.5237404,17.0669481 35.9324264,20.6627383 35.9350015,25.0956665 C35.9375794,29.5285947 39.5330709,33.1202078 43.9659993,33.118001 C48.399864,33.1135863 51.9923463,29.5188666 51.9939993,25.085 L51.9889993,25.085 Z M100.361999,21.985 C99.1235113,19.0018995 96.21264,17.056209 92.9826668,17.052486 C89.7526935,17.0487737 86.8373511,18.9877584 85.5919993,21.968 L100.361999,21.985 Z M129.761999,25.085 C129.755385,20.6503922 126.16061,17.0578546 121.725999,17.054 L121.606999,17.054 C117.303631,17.2010393 113.850227,20.6575027 113.706999,24.961 C113.661499,27.8450123 115.166283,30.531871 117.64914,31.9998686 C120.131998,33.4678662 123.21145,33.4914525 125.716502,32.0616586 C128.221554,30.6318646 129.767318,27.9683709 129.766,25.084 L129.761999,25.085 Z M159.053999,25.085 C159.050134,20.6531457 155.454858,17.0632412 151.023003,17.066 C146.591148,17.068762 143.000347,20.6631424 143.002002,25.094998 C143.003658,29.5268537 146.597143,33.1185505 151.028999,33.118 C155.460292,33.1097301 159.048802,29.5162997 159.050999,25.085 L159.053999,25.085 Z M188.367999,25.085 C188.364686,20.6523326 184.769003,17.0614249 180.336335,17.0640002 C175.903668,17.0665783 172.312162,20.6616639 172.314002,25.0943322 C172.315842,29.5270005 175.910331,33.1191032 180.342999,33.1180003 C184.776016,33.1119343 188.367246,29.5180204 188.369999,25.085 L188.367999,25.085 Z"></path>
            </g>
        </g>
    </g>
</svg>