<svg xmlns="http://www.w3.org/2000/svg" width="30.015" height="28" viewBox="0 0 30.015 28">
  <path id="Combined-Shape" d="M27.948,12.7a2.838,2.838,0,0,1,.446,2.454l-1.831,6.579a4.281,4.281,0,0,1-4.086,3.153H10.217l.173.712a1.758,1.758,0,0,0,1.7,1.365H23.239a1.269,1.269,0,0,1,0,2.538H12.087a4.262,4.262,0,0,1-4.123-3.295L4.6,12.4a1.758,1.758,0,0,0-1.7-1.365H.75A1.269,1.269,0,0,1,.75,8.5H2.906A4.255,4.255,0,0,1,6.97,11.577H25.747A2.714,2.714,0,0,1,27.948,12.7ZM10.5,35.5a2,2,0,1,1,2-2A2,2,0,0,1,10.5,35.5Zm13,0a2,2,0,1,1,2-2A2,2,0,0,1,23.5,35.5Z" transform="translate(1 -8)" fill="none" stroke="#221e20" stroke-width="1" fill-rule="evenodd"/>
</svg>
